# xmcd
#
# Track frame offsets: 
#        150
#        9810
#        19637
#        31390
#        42187
#        51435
#        64775
#        79957
#        92422
#        103835
#        114952
#        125545
#        140970
#        151242
#
# Disc length: 2169 seconds
#
# Revision: 0
# Processed by: cddbd v1.5.2PL0 Copyright (c) Steve Scherf et al.
# Submitted via: ExactAudioCopy v0.95b4
#
DISCID=b008770e
DTITLE=Various Artist - The Yamaha Legend Series
DYEAR=1900
DGENRE=R&B
TTITLE0=Long Tall Sally - Little Richard
TTITLE1=Good Golly Miss Molly - Little Richard
TTITLE2=Under the Boardwalk - The Drifters
TTITLE3=Save the Last Dance for Me - The Drifters
TTITLE4=Every Beat of My Heart - Glady's Knight and the Pips
TTITLE5=When a Man Loves a Woman - Percy Sledge
TTITLE6=The Great Pretender - The Platters
TTITLE7=Only You - The Platters
TTITLE8=Smoke Gets in your Eyes - The Platters
TTITLE9=Blueberry Hill - Fats Domino
TTITLE10=Ain't That A Shame - Fats Domino
TTITLE11=I'm in Love Again - Fats Domino
TTITLE12=Hurts So Bad - Little Anthony And The Imperials
TTITLE13=I Got You(I Feel Good) - James Brown
EXTD=
EXTT0=
EXTT1=
EXTT2=
EXTT3=
EXTT4=
EXTT5=
EXTT6=
EXTT7=
EXTT8=
EXTT9=
EXTT10=
EXTT11=
EXTT12=
EXTT13=
PLAYORDER=
